<svg xmlns="http://www.w3.org/2000/svg" fill="gold" viewBox="0 0 64 64" id="quran"><path d="M53.92847,41.35547l-5.98169-2.09082,8.18432-3.627-.473-4.9787L54.11694,12.707a1.88741,1.88741,0,0,0-2.32922-1.6911L47.96411,7.26367,34.09985,12.86621A5.38878,5.38878,0,0,0,31.86743,15.293a5.48706,5.48706,0,0,0-2.28955-2.45508L15.77319,7.26367l-3.80175,3.73126A1.89521,1.89521,0,0,0,9.7146,12.707L8.27954,30.67773H8.2796l-.44684,4.96973,8.18677,3.6286-5.94946,2.07941L6.46362,52.08789l2.06006,4.64844,23.4458-10.3916L55.4104,56.7334l2.126-4.64258ZM15.6911,25.69928,29.928,31.75488a2.75326,2.75326,0,0,1,1.44092,2.42188v3.47168l-18.592-9.04077Zm16.6778,8.47748a2.743,2.743,0,0,1,1.398-2.40137l14.2799-6.07605,2.91413,2.90833-18.592,9.04077Zm2.16455-20.41113L47.36066,8.585l.05218,2.85834,1-.01758-.04315-2.3631,2.9411,2.88654V27.54517L48.657,24.89667l-.20166-11.11542-1,.01758L47.655,24.7793,33.33228,30.876a3.73943,3.73943,0,0,0-.96338.75995V17.55273A4.37978,4.37978,0,0,1,34.53345,13.76563Zm-19.16571-4.703L15.325,11.42578l1,.01758.05176-2.85846,12.76758,5.1524a4.39074,4.39074,0,0,1,2.22461,3.81543V31.64514a3.88143,3.88143,0,0,0-1.00684-.78967L16.08276,24.7793,16.282,13.79883l-1-.01758-.20117,11.11548L12.427,27.54517V11.94922ZM54.91235,55.419,31.96948,45.251,9.03247,55.416,7.53491,52.03711l3.32715-9.89844,6.493-2.27063,7.963,3.52942L10.26343,50.06934l.40527.91406,17.11719-7.58594-18.89258-8.373.32031-3.5664L31.97,41.543,54.72925,31.45605l.33838,3.5586L36.15308,43.39746l17.5581,7.78125.40528-.91406L38.62085,43.39746l7.99023-3.541,6.52539,2.28216,3.32569,9.89551ZM35.18726,24.71289,44.47778,20.918l.37793.92578-9.29052,3.79492ZM34.971,22.001,34.593,21.0752l9.29052-3.79493.37793.92578Zm0-4.1875L34.593,16.8877l9.29052-3.79493.37793.92578Zm-6.79883,7.82519-9.29053-3.79492.37793-.92578,9.29053,3.79492Zm.59473-3.63769-9.29053-3.79493.37793-.92578,9.29053,3.79493Zm0-4.1875-9.29053-3.79493.37793-.92578,9.29053,3.79493Z"></path></svg>